M48
INCH
T01C0.022
T02C0.032
T03C0.0354
T04C0.0394
T05C0.0433
T06C0.0472
T07C0.0669
T08C0.1023
T09C0.138
%
T01
X+016500Y-008750
X+016500Y-010250
X+019500Y-010250
X+019500Y-008750
X+023875Y-006875
X+025375Y-006875
X+025375Y-003875
X+023875Y-003875
T02
X+020125Y-012875
X+015520Y-011270
X+015520Y-015105
X+009959Y-016895
X+007520Y-020750
T03
X+021750Y-008500
X+018250Y-006675
X+018250Y-005625
X+018250Y-004625
X+018250Y-003625
X+015250Y-003625
X+015250Y-005625
X+015250Y-006625
X+021750Y-004500
X+022750Y-002750
X+027125Y-006125
X+024875Y-021500
X+023875Y-021500
X+006125Y-020750
X+005125Y-020750
X+004125Y-020750
T04
X+026976Y-010750
X+024024Y-010750
X+025538Y-001750
X+019712Y-001750
X+017663Y-001750
X+011837Y-001750
T05
X+020375Y-021500
X+020375Y-015500
T06
X+008925Y-001750
X+005575Y-001750
X+023125Y-015450
X+024625Y-015450
X+026125Y-015450
X+027625Y-015450
X+027625Y-018800
X+026125Y-018800
X+024625Y-018800
X+023125Y-018800
T07
X+017125Y-014792
X+012375Y-012659
X+010375Y-012659
X+008375Y-012659
X+006375Y-012659
X+004375Y-012659
X+002541Y-015625
X+009959Y-015625
X+017125Y-022209
X+012375Y-004659
X+010375Y-004659
X+008375Y-004659
X+006375Y-004659
X+004375Y-004659
T08
X+019125Y-021250
X+021625Y-021250
X+021625Y-015750
X+019125Y-015750
T09
X+027500Y-002000
X+027500Y-021500
X+002000Y-021500
X+002000Y-002000
T00
M30
